<svg width="359" height="59" viewBox="0 0 359 59" fill="none" xmlns="http://www.w3.org/2000/svg">
<path d="M37.2399 44.4301L34.6299 48.9401L37.2399 44.4301Z" fill="#005698"/>
<path d="M187.1 0H186.6V58.32H187.1V0Z" fill="black"/>
<path d="M51.0201 8.94995L42.8301 23.13L44.2901 25.66L53.9501 8.94995H51.0201Z" fill="#C32126"/>
<path d="M47.2499 8.94995L40.9399 19.88L42.3899 22.38L50.1499 8.94995H47.2499Z" fill="#C32126"/>
<path d="M54.8202 8.94995L44.7202 26.42L46.1802 28.9399L57.7402 8.94995H54.8202Z" fill="#C32126"/>
<path d="M58.6099 8.94995L41.3799 38.77L42.8399 41.2999L61.5399 8.94995H58.6099Z" fill="#C32126"/>
<path d="M66.1999 8.94995L45.1699 45.3299L46.6299 47.8699L69.1299 8.94995H66.1999Z" fill="#C32126"/>
<path d="M62.4098 8.94995L43.2798 42.0499L44.7398 44.5799L65.3298 8.94995H62.4098Z" fill="#C32126"/>
<path d="M69.9998 8.94995L47.0698 48.6199L47.2498 48.9399H70.3398L81.8798 28.9399L70.3398 8.94995H69.9998Z" fill="#C32126"/>
<path d="M42.8202 23.13L37.5902 32.2L27.9102 48.94H30.8402L39.0502 34.73L44.2902 25.66L42.8202 23.13Z" fill="#005698"/>
<path d="M11.55 8.94995L0 28.9399L11.55 48.9399H27.04L37.15 31.4399L42.39 22.38L40.94 19.87L34.63 8.94995H11.55Z" fill="#005698"/>
<path d="M44.72 26.42L39.49 35.48L31.71 48.94H34.63L37.24 44.43L40.95 38.01L46.18 28.94L44.72 26.42Z" fill="#005698"/>
<path d="M148.89 50.56C157.66 50.56 162.1 42.8 162.1 38.54V13.19C162.1 11.89 162.45 10.76 163.94 10.29C165.01 9.93996 167.37 9.57996 168.44 9.51996V9.10996H149.19V9.51996C150.37 9.57996 152.68 9.81996 153.99 10.41C155.41 11.06 155.83 12.01 155.83 13.31V37.48C155.83 44.59 155.77 49.86 147.89 49.86C147.3 49.86 145.64 49.62 145.05 49.33V49.03C147.18 48.26 148.66 46.9 148.66 44.53C148.66 42.4 147.24 40.74 144.81 40.74C142.38 40.74 140.72 42.7 140.72 45C140.71 47.31 142.61 50.56 148.89 50.56ZM125.49 30.31V9.86996H129.52C136.27 9.86996 138.05 15.73 138.05 20.18C138.05 22.96 136.93 30.31 128.4 30.31H125.49V30.31ZM113.11 49.56H132.01V49.14C130.53 49.08 128.1 48.79 127.33 48.49C125.91 47.96 125.49 46.83 125.49 45.53V31.02H130.11C137.75 31.02 145.39 26.76 145.39 18.7C145.39 12.6 139.7 9.10996 132.71 9.10996H112.87V9.51996C113.94 9.57996 115.89 9.87996 117.37 10.35C118.85 10.83 119.21 12.07 119.21 13.37V45.53C119.21 46.83 118.8 47.96 117.37 48.49C116.6 48.79 114.17 49.08 113.11 49.14V49.56V49.56ZM98.42 50.33C106.06 50.33 111.81 45.24 111.81 38.01C111.81 31.73 108.55 29.42 103.46 27.05C100.79 25.81 98.31 25.21 95.4 23.62C92.14 21.84 90.07 19.77 90.07 16.16C90.07 11.54 93.74 9.10996 97 9.10996C104.29 9.10996 107.6 15.51 109.56 21.96H110.09L109.79 8.50996H109.32L107.25 11.47C105.18 9.86996 101.44 8.32996 97.24 8.32996C90.49 8.32996 85.39 13.01 85.39 19.29C85.39 24.56 87.82 27.82 92.38 29.83C95.7 31.31 97.47 31.96 100.85 33.33C104.41 34.75 106.77 37.48 106.77 41.09C106.77 45.53 104.4 49.56 98.54 49.56C91.19 49.56 87.58 43.64 84.74 36.29H84.21L84.63 50.15H85.16L87.23 47.07C89 48.49 93.21 50.33 98.42 50.33Z" fill="#231F20"/>
<path d="M235.58 9.38C239.46 13.05 249.23 42.35 251.45 49.04V9.38H235.58Z" fill="black"/>
<path d="M241.16 49.04C238.93 42.22 230.48 13.25 225.98 9.44995H210.81V49.04H211.14L225.82 10.43L213.55 49.04H213.94L227.32 13.05L216.18 49.0299H216.71L228.84 16.19L218.9 49H219.36L225.63 35.5299H224.12L230.22 19.34L225.63 35.5299H227.01L221.44 49.0299H241.16V49.04Z" fill="black"/>
<path d="M341.56 48.42C341.18 48.42 340.61 48.38 340.05 48.19C339.18 47.94 338.13 47.25 336.79 43.95C335.08 39.7 331.47 30.27 329.31 24.63L327.65 20.3C327.19 19.11 327 18.77 326.61 18.77C326.23 18.77 326.04 19.12 325.57 20.42L316.67 44.78C315.92 46.87 315.16 48.13 313.53 48.34C313.53 48.34 313.44 48.35 313.31 48.36C313.08 48.33 312.84 48.28 312.6 48.2C311.73 47.95 310.68 47.26 309.34 43.96C307.63 39.7 304.02 30.26 301.85 24.61L300.2 20.31C299.74 19.12 299.55 18.78 299.16 18.78C298.77 18.78 298.59 19.13 298.12 20.43L289.22 44.79C288.47 46.88 287.71 48.14 286.08 48.35C286.08 48.35 285.99 48.36 285.86 48.37C285.63 48.34 285.39 48.29 285.15 48.21C284.28 47.96 283.23 47.27 281.89 43.97C280.19 39.72 276.57 30.29 274.41 24.65L272.75 20.32C272.29 19.13 272.1 18.79 271.71 18.79C271.32 18.79 271.14 19.14 270.67 20.44L261.77 44.8C261.01 46.89 260.26 48.15 258.63 48.36L257.52 48.44C257.19 48.44 256.98 48.61 256.98 48.87C256.98 49.37 257.61 49.37 257.92 49.37L261.46 49.28L262.35 49.25L263.34 49.29L265.4 49.37C266.04 49.37 266.18 49.1 266.18 48.87C266.18 48.71 266.1 48.44 265.6 48.44H265.21C264.71 48.44 263.91 48.18 263.91 47.49C263.91 46.8 264.1 45.89 264.45 44.93L266.81 37.98C266.88 37.81 266.95 37.8 267.02 37.8H275.45C275.55 37.8 275.58 37.82 275.63 37.93L279.27 47.56C279.33 47.71 279.36 47.85 279.36 47.97C279.36 48.06 279.34 48.15 279.31 48.21C279.26 48.32 279.19 48.35 279.16 48.36C278.81 48.45 278.75 48.68 278.75 48.82C278.75 49.22 279.19 49.24 279.93 49.28L280.11 49.29C281.58 49.33 283.36 49.36 285.22 49.37C285.28 49.37 285.33 49.37 285.38 49.37H285.43C285.71 49.37 285.99 49.37 286.28 49.37C286.44 49.37 286.59 49.36 286.71 49.34L288.91 49.29L289.8 49.26L290.79 49.3L292.85 49.38C293.49 49.38 293.63 49.11 293.63 48.88C293.63 48.72 293.55 48.45 293.05 48.45H292.66C292.16 48.45 291.36 48.19 291.36 47.5C291.36 46.81 291.55 45.9 291.9 44.94L294.25 37.99C294.32 37.82 294.39 37.81 294.46 37.81H302.89C302.99 37.81 303.02 37.83 303.07 37.94L306.71 47.57C306.77 47.72 306.8 47.86 306.8 47.98C306.8 48.07 306.78 48.16 306.75 48.22C306.7 48.33 306.63 48.36 306.6 48.37C306.25 48.46 306.19 48.69 306.19 48.83C306.19 49.23 306.63 49.25 307.37 49.29L307.55 49.3C309.02 49.34 310.8 49.37 312.66 49.38C312.72 49.38 312.77 49.38 312.82 49.38H312.87C313.15 49.38 313.43 49.38 313.72 49.38C313.89 49.38 314.03 49.37 314.15 49.35L316.35 49.3L317.24 49.27L318.23 49.31L320.29 49.39C320.93 49.39 321.07 49.12 321.07 48.89C321.07 48.73 320.99 48.46 320.49 48.46H320.1C319.6 48.46 318.8 48.2 318.8 47.51C318.8 46.82 318.99 45.91 319.34 44.95L321.69 38C321.76 37.83 321.83 37.82 321.9 37.82H330.33C330.43 37.82 330.46 37.84 330.51 37.95L334.15 47.58C334.21 47.73 334.24 47.87 334.24 47.99C334.24 48.08 334.22 48.17 334.19 48.23C334.14 48.34 334.07 48.37 334.04 48.38C333.69 48.47 333.63 48.7 333.63 48.84C333.63 49.24 334.07 49.26 334.81 49.3L334.99 49.31C336.74 49.36 338.93 49.39 341.16 49.39C341.81 49.39 342.14 49.22 342.14 48.89C342.14 48.56 341.94 48.42 341.56 48.42ZM329.81 35.98H322.4V35.97C322.4 35.96 325.86 25.37 325.86 25.37C325.91 25.23 325.95 25.15 325.97 25.11C326 25.15 326.04 25.23 326.08 25.38L329.81 35.97C329.81 35.96 329.81 35.97 329.81 35.98ZM302.35 35.98H294.94V35.97C294.94 35.96 298.4 25.37 298.4 25.37C298.45 25.23 298.49 25.15 298.51 25.11C298.54 25.15 298.58 25.23 298.62 25.38L302.35 35.97C302.35 35.96 302.35 35.97 302.35 35.98ZM274.9 35.98H267.49V35.97C267.49 35.96 270.95 25.37 270.95 25.37C271 25.23 271.04 25.15 271.06 25.11C271.09 25.15 271.12 25.23 271.17 25.38L274.9 35.97C274.89 35.96 274.9 35.97 274.9 35.98Z" fill="black"/>
<path d="M352.77 32.18L351.67 31.32C347.88 28.22 346.96 26.95 346.96 24.88C346.96 22.27 348.82 20.52 351.59 20.52C354.89 20.52 356 21.9 356.32 22.5C356.54 22.89 356.77 23.92 356.81 24.39C356.85 24.68 356.9 25.08 357.31 25.08C357.78 25.08 357.78 24.37 357.78 23.99C357.78 21.9 357.88 20.66 357.92 20.12L357.94 19.83C357.94 19.42 357.63 19.36 357.36 19.36C357.08 19.36 356.8 19.33 356.03 19.17C354.91 18.9 353.73 18.77 352.34 18.77C347.29 18.77 344.03 21.62 344.03 26.02C344.03 28.67 344.91 31.16 349.2 34.68L350.97 36.13C354.46 39.01 355.41 40.49 355.41 43.04C355.41 45.54 353.55 48.07 349.99 48.07C348.54 48.07 345.08 47.7 344.37 44.22C344.26 43.69 344.26 43.16 344.26 42.81C344.26 42.58 344.26 42.19 343.79 42.19C343.36 42.19 343.31 42.71 343.29 42.99C343.29 43 343.26 43.46 343.26 43.46C343.2 44.25 343.1 45.58 343.1 47.16C343.1 48.2 343.13 48.49 343.79 48.82C345.28 49.55 347.02 49.9 349.13 49.9C351.5 49.9 353.58 49.32 355.16 48.22C357.68 46.43 358.58 43.6 358.58 41.55C358.57 38.51 357.62 36 352.77 32.18Z" fill="black"/>
</svg>
