<svg width="97" height="34" viewBox="0 0 97 34" fill="none" xmlns="http://www.w3.org/2000/svg">
<path fill-rule="evenodd" clip-rule="evenodd" d="M63.6096 17.0376C63.6096 21.1871 60.3143 24.1109 55.9278 24.1109H55.9079C53.6251 24.1666 51.3812 23.5128 49.4851 22.2395L48.3004 24.011H47.9938L47.7544 16.0519H48.0605C49.6914 20.2677 51.7614 23.6711 55.9751 23.6711C59.3694 23.6711 60.7008 21.3537 60.7008 18.8091C60.7008 16.7313 59.2497 15.1127 57.3127 14.3401C56.8673 14.1625 56.4701 14.0061 56.0994 13.86C54.8579 13.371 53.9131 12.9988 52.4469 12.3422C49.8447 11.1899 48.4532 9.31807 48.4532 6.29479C48.4532 2.66464 51.3819 0.000706061 55.2493 0.000706061C57.3054 -0.0129756 59.3141 0.618304 60.9932 1.80583L62.1846 0.100598H62.4576L62.6373 7.79317H62.3312C61.2127 4.09009 59.3093 0.413976 55.1287 0.413976C54.0565 0.40115 53.0252 0.825345 52.272 1.58901C51.5188 2.35268 51.1085 3.3901 51.1354 4.4627C51.1354 6.53435 52.3268 7.72643 54.1971 8.74568C55.2087 9.32055 56.1315 9.67143 57.0436 10.0182C57.6322 10.242 58.2162 10.4641 58.8168 10.7435C61.7389 12.1093 63.6096 13.4344 63.6096 17.0376ZM64.3545 23.6708H75.1973V23.4312C74.2993 23.3999 73.4071 23.2749 72.535 23.0582C71.8314 22.8032 71.3959 22.097 71.4837 21.3534V13.0279H74.1456C78.5258 13.0279 82.9123 10.577 82.9123 5.95456C82.9123 2.45126 79.6505 0.440164 75.6369 0.440164H64.2207V0.666468C65.0966 0.731 65.9629 0.891888 66.8035 1.14604C67.5251 1.39454 67.967 2.12251 67.8548 2.8778V21.3534C67.9426 22.097 67.5071 22.8032 66.8035 23.0582C66.0009 23.2602 65.1805 23.3853 64.3541 23.4312V23.6708H64.3545ZM92.4641 17.3436C92.4641 19.7949 89.9149 24.2441 84.8826 24.2441V24.2436H84.8561C81.2816 24.2436 80.1967 22.3855 80.1967 21.0537C80.1695 20.4142 80.4041 19.7912 80.8462 19.3286C81.2884 18.866 81.8999 18.6037 82.5397 18.6024C83.1304 18.5657 83.7089 18.7822 84.1306 19.1978C84.5523 19.6135 84.7774 20.1889 84.7497 20.7806C84.7497 22.1393 83.8976 22.9181 82.6726 23.3645V23.5311C83.1973 23.7163 83.7474 23.8196 84.3035 23.8374C88.83 23.8374 88.8631 20.8137 88.8631 16.731V2.8442C88.9283 2.1133 88.4939 1.42997 87.8047 1.17919C86.9204 0.867136 85.9932 0.694314 85.0558 0.666468V0.440164H96.0983V0.666468C95.2244 0.735172 94.3594 0.88913 93.5155 1.12615C92.8004 1.34283 92.3526 2.05191 92.4641 2.79116V17.3436ZM71.4634 0.886413V12.6153H73.1274C77.9998 12.6153 78.6655 8.39909 78.6655 6.80038C78.6655 4.25003 77.6473 0.886413 73.7733 0.886413H71.4634Z" fill="#231F20"/>
<path fill-rule="evenodd" clip-rule="evenodd" d="M25.5062 9.64044L31.0728 0H29.3889L24.6645 8.18192L25.5062 9.64044ZM28.8878 0.000111442H27.2172L23.582 6.30216L24.4171 7.74736L28.8878 0.000111442ZM33.2586 0L26.5963 11.5341L25.7607 10.0756L31.5747 0H33.2586ZM33.7597 0L23.836 17.1941L24.6715 18.6593L35.4436 0H33.7597ZM26.0213 20.9872L38.13 0H39.8139L26.8564 22.4457L26.0213 20.9872ZM35.9451 0L24.9255 19.094L25.7677 20.5525L37.6294 0H35.9451ZM40.3153 0H40.5158L47.1649 11.5341L40.5158 23.0615H27.2176L27.1108 22.8808L40.3153 0Z" fill="#C3161C"/>
<path fill-rule="evenodd" clip-rule="evenodd" d="M23.5239 6.30205L19.8973 0H6.63244L0 11.5341L6.63244 23.0615H15.5382L21.3439 12.9722L24.3569 7.74725L23.5239 6.30205ZM21.5972 13.4077L24.6035 8.18236L25.4431 9.64088L22.4372 14.8662L17.7176 23.0619H16.0379L21.5972 13.4077ZM22.6839 15.3072L25.6969 10.0823L26.5303 11.5342L23.524 16.7657L21.3909 20.4655L19.8975 23.0616H18.2178L22.6839 15.3072Z" fill="#005698"/>
<path fill-rule="evenodd" clip-rule="evenodd" d="M4.81993 31.3153C4.81993 29.9014 5.61419 28.9761 6.75287 28.9761C7.5904 28.9403 8.31937 29.5426 8.44068 30.3707L7.9245 30.5158C7.72593 29.855 7.4149 29.4783 6.74628 29.4783C5.89842 29.4783 5.36906 30.1856 5.36906 31.3087C5.36906 32.4322 5.91204 33.2054 6.75946 33.2054C7.42149 33.2054 7.80501 32.8418 7.99742 32.102L8.50701 32.2204C8.37957 33.0893 7.61846 33.7239 6.73925 33.6944C5.59442 33.6944 4.81949 32.8287 4.81949 31.3153H4.81993ZM0.589355 32.5121L1.04623 32.3073C1.23324 32.8719 1.77492 33.2423 2.36986 33.2124C3.03189 33.2124 3.43561 32.948 3.43561 32.4656C3.43561 31.9832 3.19092 31.8047 2.29034 31.514C1.39021 31.2232 0.781332 30.9658 0.781332 30.1861C0.81131 29.8312 0.983494 29.5034 1.25888 29.2769C1.53426 29.0505 1.88954 28.9446 2.24422 28.9832C2.94611 28.9347 3.59698 29.3508 3.84636 30.0076L3.41584 30.2453C3.23748 29.7567 2.7574 29.4444 2.23763 29.4787C1.6617 29.4787 1.31728 29.7563 1.31728 30.1396C1.31728 30.5229 1.62216 30.8005 2.51571 31.0649C3.40925 31.3293 3.972 31.6525 3.972 32.4261C3.972 33.1993 3.30997 33.6948 2.35009 33.6948C1.56132 33.7493 0.836144 33.2624 0.589355 32.5125V32.5121ZM9.69172 29.0621V33.6084H10.2347V29.0621H9.69172ZM11.6575 33.6084V29.0621H14.451V29.5642H12.1939V30.9785H13.8685V31.4674H12.1939V33.1194H14.5771V33.6084H11.6575ZM15.6494 29.0621V33.6084H16.1721V29.9146L18.6547 33.6084H19.1247V29.0621H18.6147V32.6568L16.2253 29.0621H15.6494ZM20.2831 31.3153C20.2831 29.9014 21.0708 28.9761 22.2095 28.9761C23.047 28.9403 23.776 29.5426 23.8973 30.3707L23.3811 30.5158C23.1826 29.855 22.8715 29.4783 22.2025 29.4783C21.3555 29.4783 20.8257 30.1856 20.8257 31.3087C20.8257 32.4322 21.3687 33.2054 22.2161 33.2054C22.8777 33.2054 23.2616 32.8418 23.4536 32.102L23.9632 32.2204C23.8363 33.0839 23.0834 33.7167 22.2095 33.6944C21.0576 33.6944 20.2831 32.8287 20.2831 31.3153ZM25.0887 29.0621V33.6084H28.0083V33.1194H25.6316V31.4674H27.2997V30.9785H25.6316V29.5642H27.8822V29.0621H25.0887ZM30.9737 33.6084V29.0621H32.5161C33.5024 29.0621 34.1578 29.4524 34.1578 30.3838C34.1578 31.3153 33.4365 31.7051 32.4832 31.7051H31.5167V33.6281L30.9737 33.6084ZM32.5097 31.2094H31.5169V29.5574H32.5031C33.2443 29.5574 33.6221 29.7557 33.6221 30.3705C33.6221 30.9849 33.2381 31.2094 32.5097 31.2094ZM34.3634 33.6087L35.9783 29.0427H36.5275L38.1428 33.6087H37.5805L37.1302 32.287H35.3361L34.8862 33.6087H34.3634ZM36.9777 31.8313H35.5016L36.2563 29.7035L36.9777 31.8313ZM39.1753 33.6084V29.0621H40.7374C41.7698 29.0621 42.3527 29.4984 42.3527 30.3373C42.3917 30.966 41.9277 31.5137 41.3002 31.5797L42.4191 33.6084H41.8225L40.7374 31.6262H39.691V33.6084H39.1753ZM40.704 31.1699H39.7116L39.6918 29.5574H40.6978C41.4258 29.5574 41.8163 29.7293 41.8163 30.3503C41.8163 30.9717 41.4192 31.1699 40.704 31.1699ZM44.5308 33.6084V29.5642H43.0811V29.0621H46.5235V29.5642H45.0672V33.6084H44.5308ZM47.5296 29.0621V33.6084H48.0462V29.9146L50.5217 33.6084H51.012V29.0621H50.4953V32.6568L48.0989 29.0621H47.5296ZM52.4149 33.6084V29.0621H55.2018V29.5642H52.9513V30.9785H54.6259V31.4674H52.9179V33.1194H55.3011V33.6084H52.4149ZM56.3865 29.0621V33.6084H56.3869H56.9097V31.6262H57.9421L59.0346 33.6084H59.6303L58.5119 31.5797C59.1418 31.5168 59.6094 30.9681 59.5706 30.3373C59.5706 29.4984 58.9815 29.0621 57.9487 29.0621H56.3865ZM56.9229 31.1699H57.9153C58.6305 31.1699 59.0346 30.9717 59.0346 30.3503C59.0346 29.7293 58.6371 29.5574 57.9157 29.5574H56.9229V31.1699ZM62.1796 32.7895L61.815 33.1C62.0698 33.4672 62.4932 33.6809 62.9405 33.6684C63.3038 33.7142 63.6679 33.5898 63.9269 33.3313C64.1858 33.0728 64.3105 32.7093 64.2645 32.3466V29.0427H63.7216V32.3466C63.7216 33.0009 63.4171 33.2193 62.9537 33.2193C62.639 33.2176 62.3471 33.0555 62.1796 32.7895ZM65.3629 31.3358C65.3629 29.8754 66.2037 28.9764 67.3485 28.9764C68.4938 28.9764 69.3346 29.8754 69.3346 31.3358C69.3346 32.7961 68.5004 33.6951 67.349 33.6951C66.1971 33.6951 65.3629 32.829 65.3629 31.3358ZM67.3287 29.4722C68.1563 29.4722 68.7454 30.1529 68.7454 31.336C68.7454 32.5188 68.1629 33.206 67.3287 33.206C66.4949 33.206 65.9123 32.5385 65.9123 31.336C65.9123 30.1331 66.5015 29.4722 67.3287 29.4722ZM70.3475 32.0358V29.0625H70.8901V31.963C70.8431 32.2893 70.9467 32.6194 71.1717 32.8607C71.3967 33.102 71.7191 33.2287 72.0485 33.2054C72.8362 33.2054 73.1872 32.7098 73.1872 31.9761V29.0621H73.7231V32.0222C73.7602 32.4765 73.5945 32.924 73.2704 33.2451C72.9463 33.5662 72.4968 33.7282 72.0419 33.6878C71.5857 33.7392 71.1305 33.5833 70.8021 33.2631C70.4737 32.9429 70.3068 32.4923 70.3475 32.0358ZM75.0474 29.0621V33.6084H75.0478H75.5838V31.6262H76.6096L77.6955 33.6084H78.2846L77.1662 31.5797C77.7961 31.5168 78.2637 30.9681 78.2249 30.3373C78.2249 29.4984 77.6424 29.0621 76.6096 29.0621H75.0474ZM75.5838 31.1699H76.5766C77.2914 31.1699 77.6889 30.9717 77.6889 30.3503C77.6889 29.7293 77.2979 29.5574 76.57 29.5574H75.5838V31.1699ZM79.4625 29.0621V33.6084H79.9721V29.9146L82.4481 33.6084H82.9313V29.0621H82.4217V32.6568L80.0319 29.0621H79.4625ZM83.9575 33.6087L85.5662 29.0427H86.1285L87.7443 33.6087H87.1815L86.7378 32.287H84.924L84.4803 33.6087H83.9575ZM86.5654 31.8313H85.0893L85.8441 29.7035L86.5654 31.8313ZM88.7436 33.6084V29.0621H89.2866V33.1194H91.4708V33.6084H88.7436ZM92.5832 32.3067L92.1329 32.5115C92.3725 33.2646 93.0974 33.7561 93.887 33.7008C94.8469 33.7008 95.5089 33.2053 95.5089 32.4321C95.5089 31.659 94.9462 31.3353 94.0526 31.0709C93.1591 30.8065 92.8542 30.5289 92.8542 30.1456C92.8542 29.7623 93.1986 29.4847 93.7745 29.4847C94.2955 29.4518 94.7767 29.7631 94.9594 30.2513L95.3899 30.0136C95.136 29.3575 94.484 28.9422 93.7811 28.9892C93.4265 28.9506 93.0712 29.0565 92.7958 29.2829C92.5204 29.5094 92.3482 29.8372 92.3183 30.1921C92.3183 30.9652 92.9271 31.2226 93.8277 31.5134C94.7278 31.8041 94.9725 31.9826 94.9725 32.465C94.9725 32.9474 94.5688 33.2119 93.9068 33.2119C93.3118 33.2417 92.7702 32.8713 92.5832 32.3067Z" fill="#231F20"/>
</svg>
