<svg width="188" height="42" viewBox="0 0 188 42" fill="none" xmlns="http://www.w3.org/2000/svg">
<path d="M4.60534 19.2516V8.04139C4.60534 7.4165 4.40273 6.96296 3.82348 6.6228C3.36112 6.36831 2.40522 6.19697 2 6.14153V5.51665H10.8031V6.14153C10.3693 6.19949 9.38483 6.34059 8.97962 6.50941C8.34322 6.73618 8.19775 7.2754 8.19775 7.90029V18.856C8.19775 21.7511 9.15365 23.9634 12.598 23.9634C16.0164 23.9634 17.3489 21.4387 17.3489 18.7703V10.8509C17.3489 8.63604 17.0294 7.47446 16.4813 7.01839C15.9592 6.56484 14.4838 6.19445 13.9617 6.13901V5.51665H21.6635V6.14153C21.2011 6.19949 19.8088 6.42626 19.2321 6.85209C18.5672 7.33335 18.3931 8.64108 18.3931 10.6846V18.9442C18.3931 23.5426 14.8007 25.3593 11.733 25.3593C7.06782 25.3543 4.60534 22.7439 4.60534 19.2516Z" fill="white"/>
<path d="M21.4426 24.3313C21.8764 24.3036 22.253 24.2456 22.6011 24.1045C23.092 23.9332 23.2661 23.4796 23.2661 22.8548V6.79416C23.2661 6.11384 23.0037 5.46123 22.5699 5.14879C22.279 4.92202 21.266 4.63729 20.8036 4.60957V4.04012L26.1597 3.72768L26.3338 3.92673V22.6859C26.3338 23.3108 26.565 23.7644 27.0299 23.9911C27.4066 24.1625 27.6949 24.2759 28.1599 24.3313V24.8982H21.4426V24.3313Z" fill="white"/>
<path d="M29.9498 21.2396V13.1791H27.6042V11.9873H30.0069V7.72897H32.9889V11.9873H36.3761V13.1791H32.9889V20.9549C32.9889 22.3458 33.3941 23.4519 34.6981 23.4519C35.9137 23.4519 36.0306 22.3458 36.1449 21.1817H36.8099C36.6644 23.3663 35.6514 25.2107 33.3058 25.2107C31.1083 25.2132 29.9498 23.7644 29.9498 21.2396Z" fill="white"/>
<path d="M37.2642 24.3313C37.698 24.3036 38.0461 24.2456 38.3941 24.1045C38.8565 23.9332 39.0591 23.4796 39.0591 22.8548V14.5977C39.0305 14.0005 38.7682 13.4059 38.363 13.0934C38.0746 12.8667 37.5239 12.6676 37.059 12.6399V12.1007L41.9528 11.7605L42.1268 11.9596V13.8897H42.1839C43.2567 12.3577 44.3555 11.6471 45.514 11.6471C46.5868 11.6471 47.4829 12.5265 47.4829 13.746C47.4829 14.8824 46.7868 15.8172 45.7738 15.8172C44.8179 15.8172 44.0646 15.3057 44.0646 14.2575C44.0646 13.8594 44.2958 13.5193 44.3243 13.1791C43.1372 13.1791 42.384 14.2852 42.1528 14.7967V22.7137C42.1528 23.3385 42.384 23.7921 42.8177 23.9911C43.2515 24.1902 44.0931 24.3036 44.5269 24.3313V24.8982H37.259V24.3313H37.2642Z" fill="white"/>
<path d="M47.8208 22.1744C47.8208 19.7908 49.065 19.0248 50.3404 18.5133C51.8756 17.8884 53.7562 17.3492 54.655 16.6966V15.079C54.655 14.3684 54.6264 12.2115 52.8003 12.2115C52.047 12.2115 51.6704 12.723 51.4392 13.0052C51.4678 13.4311 51.8159 14.1416 51.8159 14.8774C51.8159 15.5879 51.0054 16.296 49.9041 16.296C48.8624 16.296 48.4286 15.472 48.4286 14.5927C48.4286 12.8616 50.8911 11.5841 53.0055 11.5841C55.668 11.5841 57.7539 12.01 57.7539 15.7845C57.7539 18.3395 57.6084 21.3177 57.6084 22.2551C57.6084 22.7363 57.985 23.646 58.6812 23.646C59.463 23.646 59.6085 22.5096 59.6371 21.348H60.3021C60.1852 23.8727 59.2604 25.2082 57.3486 25.2082C55.9304 25.2082 55.1485 24.5278 54.7147 23.336H54.6264C53.7302 24.4422 52.6289 25.2661 50.8911 25.2661C49.1248 25.2686 47.8208 24.0214 47.8208 22.1744ZM54.5693 22.5171L54.6861 17.5785C52.5406 18.3999 51.0937 19.1105 51.0937 21.5798C51.0937 23.0841 51.7016 23.7644 52.5691 23.7644C53.6991 23.7644 54.0757 23.2831 54.5693 22.5171Z" fill="white"/>
<path d="M60.4838 24.3313C60.9176 24.3036 61.2656 24.2456 61.6137 24.1045C62.0761 23.9332 62.3098 23.4796 62.3098 22.8547V13.1514H59.7616V11.9873H62.3098V11.2767C62.3098 8.9485 62.7722 7.0184 64.0762 5.54438C65.1464 4.29712 66.5361 3.69995 68.1284 3.69995C70.5025 3.69995 71.2558 5.11855 71.2558 6.39604C71.2558 7.07636 70.7337 8.09936 69.6064 8.09936C68.9414 8.09936 67.9284 7.73148 67.9284 6.62281C67.9284 6.08359 68.1595 5.68548 68.2167 4.97744C68.1881 4.60956 67.8972 4.38027 67.5803 4.38027C66.1023 4.38027 65.5542 6.16926 65.4087 10.226C65.3802 10.7073 65.3802 11.6169 65.3802 11.9847H68.5648V13.1488H65.3802V22.7136C65.3802 23.3108 65.6399 23.7921 66.1049 23.9911C66.4815 24.1625 67.3205 24.3036 67.7855 24.3313V24.8982H60.4864V24.3313H60.4838Z" fill="white"/>
<path d="M68.6635 22.1744C68.6635 19.7908 69.9077 19.0248 71.1831 18.5133C72.7182 17.8884 74.5989 17.3492 75.4976 16.6966V15.079C75.4976 14.3684 75.4691 12.2115 73.643 12.2115C72.8897 12.2115 72.513 12.723 72.2819 13.0052C72.3104 13.4311 72.6585 14.1416 72.6585 14.8774C72.6585 15.5879 71.8481 16.296 70.7467 16.296C69.7051 16.296 69.2713 15.472 69.2713 14.5927C69.2713 12.8616 71.7338 11.5841 73.8482 11.5841C76.5107 11.5841 78.5965 12.01 78.5965 15.7845C78.5965 18.3395 78.451 21.3177 78.451 22.2551C78.451 22.7363 78.8277 23.646 79.5238 23.646C80.3057 23.646 80.4512 22.5096 80.4797 21.348H81.1447C81.0278 23.8727 80.1031 25.2082 78.1913 25.2082C76.773 25.2082 75.9912 24.5278 75.5574 23.336H75.4691C74.5729 24.4422 73.4715 25.2661 71.7338 25.2661C69.9674 25.2686 68.6635 24.0214 68.6635 22.1744ZM75.4119 22.5171L75.5288 17.5785C73.3858 18.4024 71.9364 19.1105 71.9364 21.5798C71.9364 23.0841 72.5442 23.7644 73.4144 23.7644C74.5443 23.7644 74.9184 23.2831 75.4119 22.5171Z" fill="white"/>
<path d="M82.893 24.1348L82.545 25.0418H81.7345L81.6176 20.4157H82.1969C82.6021 21.9476 84.1658 24.616 86.1945 24.616C87.7582 24.616 88.4232 23.6233 88.4232 22.2601C88.4232 20.8415 87.3219 20.2443 85.4698 19.622C83.7918 19.055 81.9371 18.0043 81.9371 15.4796C81.9371 13.3227 83.6749 11.5917 86.2231 11.5917C87.353 11.5917 88.4518 11.8764 89.1479 12.3299L89.4077 11.5639H90.161L90.335 15.7063H89.7843C89.3791 13.9476 87.9608 12.272 86.3971 12.272C85.0646 12.272 84.4568 13.237 84.4568 14.2575C84.4568 15.7618 85.2958 16.1296 87.353 16.8679C89.4103 17.5785 90.9143 18.798 90.9143 21.096C90.9143 23.7644 88.7713 25.2963 86.1945 25.2963C84.7763 25.2963 83.3866 24.616 82.893 24.1348Z" fill="white"/>
<path d="M93.465 21.2396V13.1791H91.1194V11.9873H93.5222V7.72897H96.5041V11.9873H99.8913V13.1791H96.5041V20.9549C96.5041 22.3458 96.9094 23.4519 98.2133 23.4519C99.429 23.4519 99.5459 22.3458 99.6602 21.1817H100.325C100.18 23.3663 99.1666 25.2107 96.821 25.2107C94.6235 25.2132 93.465 23.7644 93.465 21.2396Z" fill="white"/>
<path d="M106.414 23.85L105.575 25.1552H104.676L104.502 18.2865H105.167C106.209 21.1817 108.12 24.417 111.248 24.417C113.477 24.417 114.78 22.9127 114.78 20.8692C114.78 19.1659 113.884 17.9741 112.03 17.2358C110.697 16.6966 109.424 16.243 108.235 15.7038C106.12 14.7388 104.99 12.98 104.99 10.5661C104.99 7.52989 107.364 5.0883 110.869 5.0883C112.518 5.0883 114.227 5.7409 115.183 6.42122L115.908 5.2294H116.864L116.981 11.8134H116.344C115.303 8.7192 113.941 5.99539 110.697 5.99539C109.567 5.99539 107.889 7.01587 107.889 9.00392C107.889 10.7072 108.7 11.7277 110.495 12.5794C111.682 13.1766 113.188 13.6301 114.201 14.1114C116.344 15.1041 117.822 16.3539 117.822 19.3045C117.822 22.7666 115.129 25.2938 111.308 25.2938C108.845 25.2963 107.31 24.4749 106.414 23.85Z" fill="white"/>
<path d="M119.04 18.3722C119.04 14.8244 121.272 11.5891 125.064 11.5891C127.843 11.5891 129.205 13.0657 129.205 14.8824C129.205 15.9029 128.625 16.6714 127.524 16.6714C126.888 16.6714 125.786 16.2456 125.786 15.1117C125.786 14.061 126.163 13.8342 126.249 13.2093C126.132 12.5567 125.815 12.272 125.062 12.272C123.643 12.272 122.396 13.8896 122.396 18.1177C122.396 21.4664 123.643 23.7946 125.669 23.7946C127.436 23.7946 128.42 22.9152 129.231 21.2119L129.81 21.61C128.914 23.6535 127.002 25.2711 124.83 25.2711C120.924 25.2686 119.04 22.3181 119.04 18.3722Z" fill="white"/>
<path d="M130.033 24.3313C130.467 24.3036 130.815 24.2456 131.163 24.1045C131.626 23.9332 131.859 23.4242 131.859 22.8547V14.5977C131.831 13.9728 131.6 13.4915 131.194 13.1791C130.875 12.9523 130.093 12.6676 129.631 12.6399V12.1006L134.756 11.7605L134.93 11.9595V22.6884C134.93 23.2856 135.161 23.7089 135.654 23.9936C136.031 24.1927 136.408 24.2784 136.784 24.3338V24.9007H130.033V24.3313ZM131.192 6.08358C131.192 4.97743 132.031 4.09806 133.104 4.09806C134.233 4.09806 135.072 4.94972 135.072 6.02815C135.072 7.1343 134.233 8.04391 133.104 8.04391C132.031 8.0414 131.192 7.16202 131.192 6.08358Z" fill="white"/>
<path d="M136.932 18.3445C136.932 14.8244 138.99 11.5891 142.668 11.5891C146.403 11.5891 147.764 14.1996 147.764 17.1224V17.4349H140.234V17.7473C140.234 21.2673 141.278 23.8198 143.883 23.8198C145.65 23.8198 146.517 23.1092 147.476 21.2648L147.998 21.6327C147.071 23.7039 145.247 25.2661 142.902 25.2661C138.816 25.2686 136.932 22.1467 136.932 18.3445ZM144.491 16.6689C144.491 14.57 144.232 12.2695 142.579 12.2695C141.19 12.2695 140.32 13.9728 140.234 16.7243L144.491 16.6689Z" fill="white"/>
<path d="M148.252 24.3313C148.686 24.3036 149.034 24.2456 149.382 24.1045C149.845 23.9332 150.047 23.4796 150.047 22.8547V14.5977C150.019 14.0005 149.756 13.3781 149.354 13.0934C149.063 12.8666 148.515 12.6676 148.078 12.6399V12.1006L152.944 11.7605L153.146 11.9595V13.9174H153.175C154.131 12.8389 155.058 11.5891 157.23 11.5891C159.604 11.5891 160.762 13.3202 160.762 16.0163V22.7414C160.762 23.3662 160.908 23.7618 161.37 23.9911C161.747 24.1625 162.064 24.2759 162.529 24.3313V24.8982H155.983V24.3313C156.388 24.3036 156.793 24.2456 157.084 24.1045C157.489 23.9332 157.635 23.4796 157.635 22.8547V16.0742C157.635 14.1164 156.824 13.1791 155.84 13.1791C154.248 13.1791 153.406 14.3155 153.146 14.9681V22.7162C153.146 23.341 153.292 23.7669 153.668 23.9937C154.016 24.1927 154.422 24.2784 154.77 24.3338V24.9007H148.252V24.3313Z" fill="white"/>
<path d="M162.742 18.3722C162.742 14.8244 164.973 11.5891 168.765 11.5891C171.545 11.5891 172.906 13.0657 172.906 14.8824C172.906 15.9029 172.327 16.6714 171.225 16.6714C170.589 16.6714 169.488 16.2456 169.488 15.1117C169.488 14.061 169.864 13.8342 169.95 13.2093C169.833 12.5567 169.516 12.272 168.763 12.272C167.345 12.272 166.098 13.8896 166.098 18.1177C166.098 21.4664 167.345 23.7946 169.371 23.7946C171.137 23.7946 172.121 22.9152 172.932 21.2119L173.511 21.61C172.615 23.6535 170.703 25.2711 168.532 25.2711C164.625 25.2686 162.742 22.3181 162.742 18.3722Z" fill="white"/>
<path d="M173.937 18.3445C173.937 14.8244 175.994 11.5891 179.673 11.5891C183.408 11.5891 184.769 14.1996 184.769 17.1224V17.4349H177.239V17.7473C177.239 21.2673 178.283 23.8198 180.888 23.8198C182.654 23.8198 183.522 23.1092 184.481 21.2648L185.003 21.6327C184.075 23.7039 182.252 25.2661 179.906 25.2661C175.82 25.2686 173.937 22.1467 173.937 18.3445ZM181.496 16.6689C181.496 14.57 181.236 12.2695 179.584 12.2695C178.194 12.2695 177.324 13.9728 177.239 16.7243L181.496 16.6689Z" fill="white"/>
<path d="M3.75342 38.564L6.34317 31.4382H7.25232L9.84207 38.564H8.94332L8.2212 36.5306H5.31454L4.59243 38.564H3.75342ZM5.58209 35.7923H7.95625L6.78995 32.4638H6.76917L5.58209 35.7923Z" fill="white"/>
<path d="M15.3878 36.848L16.1203 36.5306C16.4866 37.4805 17.2087 37.9492 18.1958 37.9492C19.2244 37.9492 19.9049 37.5284 19.9049 36.78C19.9049 36.0795 19.5101 35.7343 18.0659 35.2934C16.5437 34.8424 15.6346 34.4392 15.6346 33.2121C15.6346 32.1286 16.5931 31.3324 17.9879 31.3324C19.3828 31.3324 20.1933 32.0228 20.5699 32.9249L19.879 33.2978C19.4841 32.4436 18.8503 32.0984 17.9802 32.0984C17.0502 32.0984 16.497 32.5393 16.497 33.1441C16.497 33.9025 16.9905 34.152 18.4243 34.5929C19.8971 35.0339 20.7673 35.5126 20.7673 36.7221C20.7673 37.8912 19.7101 38.6975 18.1568 38.6975C16.7619 38.7 15.7722 37.9693 15.3878 36.848Z" fill="white"/>
<path d="M23.2323 34.9885C23.2323 32.7737 24.5077 31.3349 26.3363 31.3349C27.8871 31.3349 28.7105 32.2092 29.0456 33.5119L28.2144 33.7312C27.8975 32.6578 27.3936 32.111 26.326 32.111C24.9622 32.111 24.1102 33.2247 24.1102 34.9784C24.1102 36.8581 24.9804 37.9315 26.3441 37.9315C27.3806 37.9315 28.0248 37.3671 28.3313 36.2156L29.1521 36.397C28.7962 37.798 27.8663 38.6975 26.3337 38.6975C24.4791 38.7 23.2323 37.3091 23.2323 34.9885Z" fill="white"/>
<path d="M31.9576 38.564V31.466H32.8278V38.564H31.9576Z" fill="white"/>
<path d="M36.0487 38.564V31.466H40.5373V32.242H36.9189V34.4569H39.6074V35.2153H36.9189V37.7955H40.7451V38.5615H36.0487V38.564Z" fill="white"/>
<path d="M43.3971 38.564V31.466H44.3167L48.1611 37.0774H48.1818V31.466H49.0027V38.564H48.2208L44.2361 32.7989H44.2154V38.564H43.3971Z" fill="white"/>
<path d="M51.8651 34.9885C51.8651 32.7737 53.1405 31.3349 54.9692 31.3349C56.5199 31.3349 57.3434 32.2092 57.6784 33.5119L56.8472 33.7312C56.5303 32.6578 56.0264 32.111 54.9588 32.111C53.5951 32.111 52.7431 33.2247 52.7431 34.9784C52.7431 36.8581 53.6133 37.9315 54.977 37.9315C56.0134 37.9315 56.6576 37.3671 56.9641 36.2156L57.7849 36.397C57.4291 37.798 56.4992 38.6975 54.9666 38.6975C53.112 38.7 51.8651 37.3091 51.8651 34.9885Z" fill="white"/>
<path d="M60.5202 38.564V31.466H65.0088V32.242H61.3904V34.4569H64.0789V35.2153H61.3904V37.7955H65.2166V38.5615H60.5202V38.564Z" fill="white"/>
<path d="M71.2352 38.564V31.466H73.7184C75.3003 31.466 76.3575 32.0707 76.3575 33.4792C76.3575 34.9936 75.1912 35.5605 73.6587 35.5605H72.1079V38.5615H71.2352V38.564ZM72.1053 34.8147H73.708C74.8743 34.8147 75.4977 34.4695 75.4977 33.5095C75.4977 32.5998 74.8847 32.2345 73.6976 32.2345H72.1053V34.8147Z" fill="white"/>
<path d="M77.9214 38.564L80.5112 31.4382H81.4203L84.0101 38.564H83.1113L82.3892 36.5306H79.4825L78.7604 38.564H77.9214ZM79.7501 35.7923H82.1242L80.9579 32.4638H80.9372L79.7501 35.7923Z" fill="white"/>
<path d="M86.597 38.564V31.466H89.1088C90.7713 31.466 91.709 32.1463 91.709 33.4515C91.709 34.5929 91.0466 35.1876 90.0076 35.3992L91.8077 38.564H90.8596L89.1088 35.5051H87.4594V38.564H86.597ZM87.4568 34.7567H89.0595C90.205 34.7567 90.8492 34.4493 90.8492 33.4817C90.8492 32.552 90.2154 32.2345 89.0491 32.2345H87.4568V34.7567Z" fill="white"/>
<path d="M96.3666 38.564V32.2446H94.0417V31.4685H99.5693V32.2446H97.2367V38.564H96.3666Z" fill="white"/>
<path d="M102.154 38.564V31.466H103.073L106.918 37.0774H106.939V31.466H107.759V38.564H106.98L102.996 32.7989H102.975V38.564H102.154Z" fill="white"/>
<path d="M110.947 38.564V31.466H115.435V32.242H111.817V34.4569H114.505V35.2153H111.817V37.7955H115.643V38.5615H110.947V38.564Z" fill="white"/>
<path d="M118.29 38.564V31.466H120.802C122.464 31.466 123.402 32.1463 123.402 33.4515C123.402 34.5929 122.739 35.1876 121.7 35.3992L123.5 38.564H122.552L120.802 35.5051H119.152V38.564H118.29ZM119.15 34.7567H120.752C121.898 34.7567 122.542 34.4493 122.542 33.4817C122.542 32.552 121.908 32.2345 120.742 32.2345H119.15V34.7567Z" fill="white"/>
<path d="M129.015 37.7703L129.597 37.2915C129.893 37.6846 130.27 37.9643 130.844 37.9643C131.587 37.9643 132.08 37.6191 132.08 36.5936V31.471H132.95V36.649C132.95 37.9819 132.169 38.7 130.875 38.7C129.984 38.7 129.428 38.3246 129.015 37.7703Z" fill="white"/>
<path d="M135.725 35.0162C135.725 32.7334 137.08 31.3324 138.888 31.3324C140.696 31.3324 142.031 32.7334 142.031 35.0162C142.031 37.2991 140.696 38.7 138.888 38.7C137.08 38.7 135.725 37.2991 135.725 35.0162ZM141.164 35.0162C141.164 33.1667 140.216 32.1009 138.891 32.1009C137.545 32.1009 136.608 33.1667 136.608 35.0162C136.608 36.8682 137.548 37.9416 138.891 37.9416C140.213 37.9416 141.164 36.8682 141.164 35.0162Z" fill="white"/>
<path d="M144.832 36.1098V31.4685H145.702V35.9964C145.702 37.1378 146.265 37.934 147.562 37.934C148.837 37.934 149.401 37.1655 149.401 36.0166V31.471H150.26V36.0947C150.26 37.5712 149.362 38.695 147.551 38.695C145.671 38.69 144.832 37.5762 144.832 36.1098Z" fill="white"/>
<path d="M153.391 38.564V31.466H155.902C157.565 31.466 158.503 32.1463 158.503 33.4515C158.503 34.5929 157.84 35.1876 156.801 35.3992L158.601 38.564H157.653L155.902 35.5051H154.253V38.564H153.391ZM154.25 34.7567H155.853C156.999 34.7567 157.643 34.4493 157.643 33.4817C157.643 32.552 157.009 32.2345 155.843 32.2345H154.25V34.7567Z" fill="white"/>
<path d="M161.396 38.564V31.466H162.316L166.16 37.0774H166.181V31.466H167.002V38.564H166.22L162.235 32.7989H162.214V38.564H161.396Z" fill="white"/>
<path d="M169.591 38.564L172.181 31.4382H173.09L175.68 38.564H174.781L174.059 36.5306H171.153L170.43 38.564H169.591ZM171.42 35.7923H173.794L172.628 32.4638H172.607L171.42 35.7923Z" fill="white"/>
<path d="M178.267 38.564V31.466H179.137V37.7955H182.657V38.5615H178.267V38.564Z" fill="white"/>
</svg>
