<svg width="86" height="82" viewBox="0 0 86 82" fill="none" xmlns="http://www.w3.org/2000/svg">
<path fill-rule="evenodd" clip-rule="evenodd" d="M25.6144 67.1965L8.22522 49.91H20.5183C21.4252 55.9749 23.1622 61.7794 25.6144 67.1965ZM5.37705 47.0712L0 41.7239H19.835C19.8734 43.5275 19.9883 45.3057 20.1671 47.0712H5.37705ZM0 38.8915L5.36427 33.557H20.1671C19.9819 35.3161 19.8734 37.0943 19.835 38.8915H0ZM8.21883 30.7182L25.6144 13.419C23.1558 18.8425 21.4188 24.647 20.5247 30.7182H8.21883Z" fill="#E60013"/>
<path fill-rule="evenodd" clip-rule="evenodd" d="M45.0913 0L85.9939 40.6761L45.0977 81.3521C37.211 73.0327 31.7062 62.4652 29.6818 50.7355C46.9497 47.7062 64.1473 44.1435 81.3896 40.8983C81.5812 40.8475 81.728 40.8348 81.7344 40.6888C81.7344 40.5427 81.5812 40.5173 81.3832 40.4792L29.6882 30.5531C31.7254 18.8551 37.2237 8.30668 45.0913 0ZM29.254 47.8206C29.0241 45.9535 28.89 44.061 28.8389 42.1494C44.408 41.9208 61.4715 41.3873 77.0726 41.0571L33.3027 47.2681V47.2617L29.254 47.8206ZM28.8389 39.1519C28.89 37.2276 29.0304 35.3288 29.2603 33.4553C44.6826 35.786 61.6312 38.085 77.0726 40.3204L32.8429 39.2789V39.2726L28.8389 39.1519Z" fill="#004098"/>
</svg>
